<?xml version="1.0" encoding="UTF-8"?>
<svg id="Calque_2" data-name="Calque 2" xmlns="http://www.w3.org/2000/svg" viewBox="0 0 155.81 20.97">
  <defs>
    <style>
      .cls-1 {
        fill: #f2efeb;
      }
    </style>
  </defs>
  <g id="Calque_1-2" data-name="Calque 1">
    <g>
      <path class="cls-1" d="M5.13,20.5c-.54-.12-1-.26-1.4-.43-.4-.17-.73-.38-.99-.63s-.46-.54-.58-.89c-.13-.35-.19-.74-.19-1.18l.02-1.5c0-.53-.12-.91-.35-1.17-.23-.25-.56-.38-.99-.39h-.63v-1.99h.66c.43-.01.76-.14.98-.39s.33-.64.33-1.18l-.02-1.5c0-.86.25-1.54.77-2.04.51-.5,1.31-.86,2.41-1.1l.55,1.81c-.37.13-.66.25-.87.37-.21.12-.36.29-.45.5-.09.21-.13.49-.13.85l.03,1.33c0,.61-.19,1.12-.56,1.53s-.95.72-1.74.91l-.02-.24c.8.22,1.39.54,1.76.95s.56.91.56,1.51l-.03,1.33c0,.34.04.6.13.8.09.19.24.35.45.47.21.12.5.24.87.36l-.55,1.91Z"/>
      <path class="cls-1" d="M7.53,12.96c0-3.99,2.75-7.95,8.01-7.95,3.07,0,5.21,1.39,6.77,3.73l-3.04,2.4c-.78-1.24-1.85-2.26-3.47-2.26-2.4,0-3.79,1.62-3.79,4.08s1.39,4.08,3.79,4.08c1.62,0,2.69-1.01,3.47-2.26l3.04,2.4c-1.56,2.34-3.7,3.73-6.77,3.73-5.26,0-8.01-3.96-8.01-7.95Z"/>
      <path class="cls-1" d="M23.35,12.99c0-4.02,2.63-7.98,8.19-7.98s8.19,3.96,8.19,7.98-2.63,7.98-8.19,7.98-8.19-3.96-8.19-7.98ZM35.24,12.99c0-2.49-1.53-4.11-3.7-4.11s-3.7,1.62-3.7,4.11,1.53,4.11,3.7,4.11,3.7-1.62,3.7-4.11Z"/>
      <path class="cls-1" d="M52.99,18.97c-1.07,1.13-2.63,1.94-4.51,1.94-4.19,0-7.23-3.1-7.23-7.95s3.04-7.95,7.23-7.95c1.88,0,3.44.81,4.51,1.97V0h4.43v20.54h-4.43v-1.56ZM52.99,15.1v-4.25c-.64-1.27-2.02-1.97-3.41-1.97-2.2,0-3.85,1.45-3.85,4.08s1.65,4.08,3.85,4.08c1.39,0,2.78-.69,3.41-1.94Z"/>
      <path class="cls-1" d="M59.76,13.02c0-4.8,3.3-8.01,7.75-8.01s7.29,2.95,7.29,7.38c0,.55-.09,1.39-.14,1.82h-10.53c.35,1.74,1.56,2.98,4.08,2.98,1.74,0,3.12-1.01,3.88-1.97l2.34,2.92c-1.36,1.5-3.56,2.81-6.45,2.81-5.09,0-8.21-3.59-8.21-7.93ZM64.27,10.99h6.25c-.17-1.59-1.27-2.43-3.01-2.43-1.62,0-2.75.81-3.24,2.43Z"/>
      <path class="cls-1" d="M97.1,12.03c0-2.05-.78-3.15-2.75-3.15-1.62,0-2.49,1.16-2.81,2.34v9.31h-4.42v-8.5c0-2.05-.78-3.15-2.75-3.15-1.62,0-2.49,1.16-2.81,2.34v9.31h-4.43V5.38h4.43v1.97c.81-1.36,2.26-2.34,4.51-2.34,2.43,0,3.93,1.07,4.71,2.75,1.16-1.82,2.69-2.75,5.26-2.75,3.96,0,5.47,2.84,5.47,6.57v8.97h-4.43v-8.5Z"/>
      <path class="cls-1" d="M115.43,18.97c-1.07,1.13-2.63,1.94-4.51,1.94-4.19,0-7.23-3.1-7.23-7.95s3.04-7.95,7.23-7.95c1.88,0,3.44.81,4.51,1.97v-1.59h4.43v15.16h-4.43v-1.56ZM115.43,15.1v-4.25c-.64-1.27-2.02-1.97-3.41-1.97-2.2,0-3.85,1.45-3.85,4.08s1.65,4.08,3.85,4.08c1.39,0,2.78-.69,3.41-1.94Z"/>
      <path class="cls-1" d="M124.16,14.4v-5.52h-2.46v-3.5h2.6V1.56h4.28v3.82h3.33v3.5h-3.33v5.78c0,1.74.87,2.37,2.49,2.37h.84v3.5c-.58.12-1.33.2-1.94.2-3.85,0-5.81-1.91-5.81-6.33Z"/>
      <path class="cls-1" d="M133.21,13.02c0-4.8,3.3-8.01,7.75-8.01s7.29,2.95,7.29,7.38c0,.55-.09,1.39-.14,1.82h-10.53c.35,1.74,1.56,2.98,4.08,2.98,1.74,0,3.12-1.01,3.88-1.97l2.34,2.92c-1.36,1.5-3.56,2.81-6.45,2.81-5.09,0-8.21-3.59-8.21-7.93ZM137.73,10.99h6.25c-.17-1.59-1.27-2.43-3.01-2.43-1.62,0-2.75.81-3.24,2.43Z"/>
      <path class="cls-1" d="M150.68,20.5l-.57-1.81c.38-.13.67-.25.88-.37.2-.12.35-.29.44-.5.09-.21.13-.49.13-.85l-.03-1.33c0-.61.19-1.12.56-1.53.37-.41.96-.72,1.76-.91v.24c-.8-.22-1.39-.54-1.76-.95-.37-.41-.56-.91-.56-1.51l.03-1.33c0-.34-.04-.6-.13-.8-.08-.19-.23-.35-.44-.47-.21-.12-.51-.24-.88-.36l.57-1.91c.54.11,1,.25,1.4.43.4.18.73.39.99.64.26.25.45.54.58.89.13.35.2.74.2,1.18l-.02,1.5c0,.53.11.91.34,1.17.23.25.56.38,1,.39h.63v1.99h-.66c-.44.01-.77.14-.99.39-.22.25-.32.64-.32,1.18l.02,1.5c0,.86-.26,1.54-.77,2.04-.52.5-1.31.86-2.4,1.1Z"/>
    </g>
  </g>
</svg>