<?xml version="1.0" encoding="UTF-8"?>
<svg id="Calque_1" data-name="Calque 1" xmlns="http://www.w3.org/2000/svg" viewBox="0 0 1000 153.62">
  <defs>
    <style>
      .cls-1 {
        fill: #1d1d1b;
      }
    </style>
  </defs>
  <path class="cls-1" d="M32.83,138.81c-3.44-.75-6.44-1.67-9.01-2.78-2.57-1.12-4.69-2.46-6.38-4.05s-2.94-3.49-3.74-5.72c-.81-2.22-1.22-4.76-1.22-7.59l.1-9.62c0-3.37-.74-5.87-2.23-7.49-1.49-1.62-3.61-2.46-6.38-2.53H-.07v-12.75h4.25c2.77-.07,4.86-.89,6.28-2.48s2.13-4.1,2.13-7.54l-.1-9.62c0-5.53,1.64-9.9,4.91-13.11,3.27-3.2,8.42-5.55,15.44-7.04l3.54,11.65c-2.36.81-4.22,1.6-5.57,2.38-1.35.78-2.31,1.84-2.89,3.19-.57,1.35-.86,3.18-.86,5.47l.2,8.51c0,3.91-1.2,7.19-3.59,9.82s-6.13,4.59-11.19,5.87l-.1-1.52c5.13,1.42,8.89,3.44,11.29,6.08,2.4,2.63,3.59,5.87,3.59,9.72l-.2,8.51c0,2.16.29,3.86.86,5.11.57,1.25,1.53,2.24,2.89,2.99,1.35.74,3.2,1.52,5.57,2.33l-3.54,12.25Z"/>
  <path class="cls-1" d="M48.25,90.41c0-25.62,17.64-51.05,51.42-51.05,19.68,0,33.41,8.91,43.44,23.95l-19.49,15.41c-5.01-7.98-11.88-14.48-22.28-14.48-15.41,0-24.32,10.39-24.32,26.18s8.91,26.17,24.32,26.17c10.4,0,17.26-6.5,22.28-14.48l19.49,15.41c-10.02,15.04-23.76,23.95-43.44,23.95-33.79,0-51.42-25.43-51.42-51.05Z"/>
  <path class="cls-1" d="M149.78,90.6c0-25.8,16.89-51.24,52.53-51.24s52.54,25.43,52.54,51.24-16.89,51.23-52.54,51.23-52.53-25.43-52.53-51.23ZM226.08,90.6c0-15.97-9.84-26.36-23.76-26.36s-23.76,10.39-23.76,26.36,9.84,26.36,23.76,26.36,23.76-10.4,23.76-26.36Z"/>
  <path class="cls-1" d="M340.04,129.02c-6.87,7.24-16.89,12.44-28.96,12.44-26.92,0-46.41-19.86-46.41-51.05s19.49-51.05,46.41-51.05c12.07,0,22.09,5.2,28.96,12.63V7.25h28.4v131.8h-28.4v-10.02ZM340.04,104.15v-27.29c-4.08-8.17-12.99-12.62-21.9-12.62-14.11,0-24.69,9.28-24.69,26.18s10.58,26.17,24.69,26.17c8.91,0,17.82-4.45,21.9-12.44Z"/>
  <path class="cls-1" d="M383.46,90.78c0-30.82,21.16-51.42,49.75-51.42s46.78,18.94,46.78,47.34c0,3.53-.56,8.91-.93,11.7h-67.57c2.23,11.14,10.02,19.12,26.18,19.12,11.14,0,20.05-6.5,24.87-12.62l15.04,18.75c-8.73,9.65-22.83,18.01-41.4,18.01-32.67,0-52.72-23.02-52.72-50.86ZM412.42,77.78h40.1c-1.11-10.21-8.17-15.59-19.31-15.59-10.39,0-17.64,5.2-20.79,15.59Z"/>
  <path class="cls-1" d="M623.09,84.47c0-13.18-5.01-20.23-17.63-20.23-10.4,0-15.97,7.42-18.01,15.04v59.77h-28.4v-54.57c0-13.18-5.01-20.23-17.64-20.23-10.39,0-15.96,7.42-18.01,15.04v59.77h-28.4V41.77h28.4v12.62c5.2-8.72,14.48-15.04,28.96-15.04,15.59,0,25.24,6.87,30.26,17.64,7.42-11.7,17.26-17.64,33.78-17.64,25.43,0,35.09,18.2,35.09,42.14v57.55h-28.4v-54.57Z"/>
  <path class="cls-1" d="M740.76,129.02c-6.87,7.24-16.89,12.44-28.96,12.44-26.92,0-46.41-19.86-46.41-51.05s19.49-51.05,46.41-51.05c12.07,0,22.09,5.2,28.96,12.63v-10.21h28.4v97.27h-28.4v-10.02ZM740.76,104.15v-27.29c-4.08-8.17-12.99-12.62-21.9-12.62-14.11,0-24.69,9.28-24.69,26.18s10.58,26.17,24.69,26.17c8.91,0,17.82-4.45,21.9-12.44Z"/>
  <path class="cls-1" d="M796.81,99.69v-35.46h-15.78v-22.46h16.7v-24.5h27.48v24.5h21.35v22.46h-21.35v37.12c0,11.14,5.57,15.22,15.96,15.22h5.38v22.46c-3.72.74-8.54,1.3-12.44,1.3-24.69,0-37.31-12.25-37.31-40.65Z"/>
  <path class="cls-1" d="M854.9,90.78c0-30.82,21.16-51.42,49.75-51.42s46.78,18.94,46.78,47.34c0,3.53-.56,8.91-.93,11.7h-67.57c2.23,11.14,10.02,19.12,26.18,19.12,11.14,0,20.05-6.5,24.87-12.62l15.04,18.75c-8.73,9.65-22.83,18.01-41.4,18.01-32.67,0-52.72-23.02-52.72-50.86ZM883.86,77.78h40.1c-1.11-10.21-8.17-15.59-19.31-15.59-10.39,0-17.64,5.2-20.79,15.59Z"/>
  <path class="cls-1" d="M967.02,138.81l-3.64-11.65c2.43-.81,4.3-1.6,5.62-2.38,1.31-.78,2.26-1.84,2.83-3.19.57-1.35.86-3.18.86-5.47l-.21-8.51c0-3.91,1.2-7.19,3.6-9.82,2.39-2.63,6.16-4.59,11.29-5.87v1.52c-5.13-1.42-8.89-3.44-11.29-6.08-2.4-2.63-3.6-5.87-3.6-9.72l.21-8.51c0-2.16-.27-3.86-.81-5.11-.54-1.25-1.49-2.24-2.83-2.99-1.35-.74-3.24-1.52-5.67-2.33l3.64-12.25c3.44.68,6.45,1.59,9.01,2.74,2.56,1.15,4.67,2.51,6.33,4.1,1.65,1.59,2.9,3.49,3.74,5.72.84,2.22,1.26,4.76,1.26,7.59l-.1,9.62c0,3.37.73,5.87,2.18,7.49,1.45,1.62,3.59,2.47,6.43,2.53h4.05v12.75h-4.25c-2.83.07-4.94.9-6.33,2.48-1.38,1.59-2.08,4.1-2.08,7.54l.1,9.62c0,5.53-1.66,9.9-4.96,13.11-3.31,3.2-8.44,5.55-15.39,7.04Z"/>
</svg>