<?xml version="1.0" encoding="UTF-8"?>
<svg id="Calque_1" data-name="Calque 1" xmlns="http://www.w3.org/2000/svg" viewBox="0 0 231.16 228.97">
  <defs>
    <style>
      .cls-1 {
        fill: #efefef;
      }
    </style>
  </defs>
  <path class="cls-1" d="M213.37,212.28l-.03-13.01H17.9s-.11,13.01-.11,13.01l-13.07.08v-26.42c.69.13,1.7.29,2.6.29l23.49-.05v-91.21s13.02-.09,13.02-.09l.04-12.98,26.04-.03.04-26.06,13.01-.08.06-13,26.02.02.03,13.01h13.01s.07-13.03.07-13.03l26.02.03.02,12.98,13.02.08.07,26.06,26.02.02.07,13,13,.06v91.21s26.08.06,26.08.06v26.07s-13.07-.03-13.07-.03ZM135.15,94.96l-.03,12.98-12.99.04-.05,13.02h-13s-.05-13.02-.05-13.02l-12.98-.04-.05-12.98-12.98-.1-.07-12.98h-12.99s-.03,13.02-.03,13.02l-26.07.02.03,91.28h143.42s.03-91.28.03-91.28l-26.07-.02-.03-13.03-13.01.04-.06,12.98-12.99.07Z"/>
  <polygon class="cls-1" points="213.37 212.28 213.4 225.35 17.76 225.35 17.79 212.28 213.37 212.28"/>
  <rect class="cls-1" x="43.84" y="55.79" width="13.06" height="13.06"/>
  <rect class="cls-1" x="174.26" y="55.79" width="13.06" height="13.06"/>
  <rect class="cls-1" x="56.88" y="16.67" width="13.06" height="13.04"/>
  <rect class="cls-1" x="161.22" y="16.67" width="13.06" height="13.04"/>
  <rect class="cls-1" x="109.06" y="3.62" width="13.04" height="13.04"/>
  <path class="cls-1" d="M161.2,173.19h-91.23s-.09-13-.09-13l-12.97-.08-.02-12.98,13.02-.05.04-13.02h91.27s.04,13.03.04,13.03l12.99.02.04,12.98-13.01.11-.08,12.99ZM69.93,147.09v13.04h65.21v-13.04h-65.21ZM161.23,147.09h-13.06v13.04h13.06v-13.04Z"/>
</svg>