<?xml version="1.0" encoding="UTF-8"?>
<svg id="Calque_1" data-name="Calque 1" xmlns="http://www.w3.org/2000/svg" viewBox="0 0 231.16 228.97">
  <defs>
    <style>
      .cls-1 {
        fill: #efefef;
      }
    </style>
  </defs>
  <polygon class="cls-1" points="106.62 50.79 50.06 50.75 49.95 64.9 35.8 64.92 35.84 50.79 49.95 50.76 50.02 36.6 106.6 36.6 106.62 50.79"/>
  <polygon class="cls-1" points="106.62 135.67 106.62 121.6 120.76 121.53 120.76 64.95 106.63 64.92 106.62 50.79 120.76 50.79 120.8 64.9 134.92 64.97 134.92 121.52 120.77 121.59 120.82 135.72 149.07 135.73 149.11 149.83 163.22 149.91 163.31 164 177.41 164.1 177.41 178.2 191.57 178.22 191.54 192.37 163.29 192.36 163.2 178.23 149.11 178.17 149.08 164.05 134.95 164.02 134.9 149.93 120.79 149.84 120.75 135.73 106.62 135.67"/>
  <polygon class="cls-1" points="35.8 64.92 35.83 121.55 49.96 121.6 50.02 135.72 106.62 135.67 106.58 149.89 50.01 149.88 49.95 135.73 35.84 135.7 35.8 121.59 21.65 121.51 21.67 64.94 35.8 64.92"/>
</svg>