<?xml version="1.0" encoding="UTF-8"?>
<svg id="Calque_1" data-name="Calque 1" xmlns="http://www.w3.org/2000/svg" viewBox="0 0 231.16 228.97">
  <defs>
    <style>
      .cls-1 {
        fill: #efefef;
      }
    </style>
  </defs>
  <polygon class="cls-1" points="142.64 114.48 142.64 99.78 157.37 99.72 157.34 85.02 54.28 85.02 54.23 99.74 68.96 99.76 69 114.47 83.68 114.49 83.7 129.23 68.99 129.21 68.98 114.48 54.26 114.48 54.23 99.77 39.51 99.74 39.5 85.04 24.76 85 24.82 70.28 186.81 70.28 186.8 85.01 172.1 85.03 172.1 99.74 157.4 99.78 157.36 114.48 142.64 114.48"/>
  <polygon class="cls-1" points="127.9 129.23 127.9 114.48 142.64 114.48 142.61 129.22 127.9 129.23"/>
  <polygon class="cls-1" points="83.7 129.23 98.41 129.24 98.45 143.95 113.15 143.97 113.17 129.24 127.9 129.23 127.89 143.96 113.16 144 113.15 158.69 98.43 158.66 98.4 144 83.69 143.95 83.7 129.23"/>
</svg>