<?xml version="1.0" encoding="UTF-8"?>
<svg id="Calque_1" data-name="Calque 1" xmlns="http://www.w3.org/2000/svg" viewBox="0 0 231.16 228.97">
  <defs>
    <style>
      .cls-1 {
        fill: #efefef;
      }
    </style>
  </defs>
  <polygon class="cls-1" points="136.76 50.9 94.4 50.9 94.39 36.76 136.73 36.75 136.76 50.9"/>
  <polygon class="cls-1" points="94.4 50.9 94.35 65.03 66.12 65.02 66.13 50.91 94.4 50.9"/>
  <polygon class="cls-1" points="165.04 65.02 136.78 65.01 136.76 50.9 165.03 50.92 165.04 65.02"/>
  <polygon class="cls-1" points="66.12 65.02 66.13 93.26 52.01 93.33 52.01 65.03 66.12 65.02"/>
  <polygon class="cls-1" points="179.17 93.31 165.05 93.29 165.04 65.02 179.16 65.03 179.17 93.31"/>
  <polygon class="cls-1" points="52.01 93.33 51.99 135.66 37.84 135.64 37.85 93.31 52.01 93.33"/>
  <polygon class="cls-1" points="179.17 135.66 179.17 93.31 193.32 93.33 193.31 135.67 179.17 135.66"/>
  <polygon class="cls-1" points="66.12 163.94 52 163.94 51.99 135.66 66.11 135.69 66.12 163.94"/>
  <polygon class="cls-1" points="179.17 135.66 179.16 163.94 165.04 163.94 165.03 135.72 179.17 135.66"/>
  <polygon class="cls-1" points="94.4 178.07 66.13 178.06 66.12 163.94 94.37 163.96 94.4 178.07"/>
  <polygon class="cls-1" points="165.04 163.94 165.03 178.06 136.76 178.07 136.81 163.95 165.04 163.94"/>
  <polygon class="cls-1" points="136.76 178.07 136.76 192.21 94.43 192.22 94.4 178.07 136.76 178.07"/>
  <rect class="cls-1" x="108.52" y="79.15" width="14.13" height="42.4"/>
  <rect class="cls-1" x="108.52" y="135.68" width="14.12" height="14.14"/>
</svg>