<?xml version="1.0" encoding="UTF-8"?>
<svg id="Calque_1" data-name="Calque 1" xmlns="http://www.w3.org/2000/svg" viewBox="0 0 231.16 228.97">
  <defs>
    <style>
      .cls-1 {
        fill: #efefef;
      }
    </style>
  </defs>
  <polygon class="cls-1" points="226.45 55.78 226.45 173.19 213.41 173.18 213.39 186.2 187.37 186.25 187.26 199.26 161.26 199.27 161.2 212.3 135.1 212.32 135.17 199.28 161.16 199.27 161.31 186.23 187.27 186.2 187.34 173.19 213.41 173.16 213.4 68.84 187.36 68.85 187.29 81.87 161.29 81.9 161.19 94.92 135.22 94.93 135.09 107.93 122.1 108 122.1 212.21 135.14 212.35 135.14 225.35 96.02 225.35 96.02 212.35 109.06 212.21 109.06 108 96.07 107.93 95.94 94.93 69.97 94.92 69.87 81.9 43.87 81.87 43.8 68.85 17.76 68.84 17.75 173.16 43.82 173.19 43.9 186.2 69.85 186.23 70 199.27 95.99 199.28 96.06 212.32 69.96 212.3 69.9 199.27 43.9 199.26 43.79 186.25 17.77 186.2 17.75 173.22 4.71 173.12 4.71 55.86 17.73 55.73 17.8 42.76 43.79 42.73 43.9 29.73 69.91 29.67 69.95 16.68 95.99 16.66 96.05 3.62 135.11 3.62 135.18 16.65 161.21 16.69 161.28 29.7 187.29 29.72 187.36 42.74 213.35 42.76 213.47 55.79 226.45 55.78"/>
  <polygon class="cls-1" points="56.88 147.07 43.87 147.09 43.84 134.08 56.87 134.04 56.91 121.02 69.91 121.01 69.95 134.03 56.94 134.05 56.88 147.07"/>
  <polygon class="cls-1" points="161.18 173.19 148.18 173.15 148.18 160.19 161.19 160.09 161.25 147.12 174.25 147.08 174.3 134.07 187.29 134.05 187.33 147.06 174.33 147.09 174.23 160.11 161.28 160.18 161.18 173.19"/>
  <rect class="cls-1" x="148.18" y="121.01" width="13.06" height="13.04"/>
</svg>