<?xml version="1.0" encoding="UTF-8"?>
<svg id="Calque_1" data-name="Calque 1" xmlns="http://www.w3.org/2000/svg" viewBox="0 0 231.16 228.97">
  <defs>
    <style>
      .cls-1 {
        fill: #efefef;
      }
    </style>
  </defs>
  <path class="cls-1" d="M183.25,103.09l16.91.15v101.43s-169.13,0-169.13,0l-.04-101.45,16.89-.09v-16.88s-16.87-.04-16.87-.04v-50.67s33.78-.08,33.78-.08l.1-16.89h16.81s.12,16.92.12,16.92h67.53s.12-16.91.12-16.91h16.81s.1,16.89.1,16.89l33.78.08v50.67s-16.89.07-16.89.07l-.03,16.81ZM149.46,69.32l-.12-16.9h-67.53s-.12,16.9-.12,16.9l-16.81.02-.09-16.91h-16.85s-.02,33.82-.02,33.82h135.32s-.02-33.81-.02-33.81h-16.85s-.09,16.9-.09,16.9l-16.81-.02ZM47.91,103.15v84.66h135.35v-84.66H47.91Z"/>
</svg>