<?xml version="1.0" encoding="UTF-8"?>
<svg id="Calque_1" data-name="Calque 1" xmlns="http://www.w3.org/2000/svg" viewBox="0 0 231.16 228.97">
  <defs>
    <style>
      .cls-1 {
        fill: #efefef;
      }
    </style>
  </defs>
  <path class="cls-1" d="M175.66,35v120.08H55.5V35h120.15ZM162.32,48.38h-93.37v93.36h93.37V48.38Z"/>
  <polygon class="cls-1" points="149.04 128.49 135.71 128.51 135.69 115.15 122.39 115.14 122.38 101.78 109.03 101.78 109.01 115.12 95.68 115.12 95.68 128.51 82.36 128.52 82.35 115.17 95.67 115.17 95.7 101.79 109.02 101.78 109.02 88.51 95.69 88.47 95.68 75.17 82.36 75.16 82.35 61.82 95.68 61.83 95.71 75.15 109.02 75.16 109.02 88.42 122.32 88.44 122.38 75.11 135.68 75.09 135.7 61.84 149.04 61.81 149.02 75.16 135.72 75.17 135.69 88.43 122.38 88.46 122.35 101.81 135.72 101.83 135.73 115.16 149.04 115.19 149.04 128.49"/>
</svg>