<?xml version="1.0" encoding="UTF-8"?>
<svg id="Calque_1" data-name="Calque 1" xmlns="http://www.w3.org/2000/svg" viewBox="0 0 231.16 228.97">
  <defs>
    <style>
      .cls-1 {
        fill: #efefef;
      }
    </style>
  </defs>
  <path class="cls-1" d="M210.66,72.19v65.38l-15.82.05-.04,17.74-17.81.08.03,15.29,15.8.13.02,16.22h-15.68s-.26-15.8-.26-15.8l-17.72-.06-.06-15.82h-87.08s-.08,15.84-.08,15.84l-17.68.02-.31,15.83h-15.66s.02-16.22.02-16.22l15.81-.13v-15.32s-17.78-.03-17.78-.03l-.06-17.78-15.8-.07v-65.33s17.83,0,17.83,0v33.67s15.81,0,15.81,0l.03-17.78,17.79-.08.04-15.76-17.82-.08-.02-15.82h17.83s.02,15.82.02,15.82l17.79.04.03,15.82,51.45.02.07-15.84,17.77-.04.05-15.81h17.81s-.02,15.84-.02,15.84l-17.8.03v15.81s17.8.05,17.8.05l.04,17.8h15.81s.01-33.68.01-33.68h17.82ZM89.82,115.79h-17.81v15.84h17.81v-15.84ZM159.15,115.79h-17.81v15.84h17.81v-15.84Z"/>
</svg>