<?xml version="1.0" encoding="UTF-8"?>
<svg id="Calque_1" data-name="Calque 1" xmlns="http://www.w3.org/2000/svg" viewBox="0 0 231.16 228.97">
  <defs>
    <style>
      .cls-1 {
        fill: #efefef;
      }
    </style>
  </defs>
  <polygon class="cls-1" points="178 195.64 177.98 88.68 124.5 88.65 124.49 35.18 53.16 35.18 53.2 17.32 160.11 17.32 160.2 35.15 177.97 35.19 177.98 53.02 160.19 52.98 160.12 35.16 142.33 35.18 142.38 70.83 177.96 70.8 178.01 52.98 195.84 53.06 195.83 195.66 178 195.64"/>
  <polygon class="cls-1" points="53.16 35.18 53.16 195.64 35.33 195.53 35.33 35.21 53.16 35.18"/>
  <polygon class="cls-1" points="178 195.64 177.91 213.51 53.2 213.5 53.16 195.64 178 195.64"/>
  <rect class="cls-1" x="69.98" y="142.16" width="89.18" height="17.85"/>
  <rect class="cls-1" x="69.98" y="106.49" width="89.18" height="17.84"/>
</svg>