<?xml version="1.0" encoding="UTF-8"?>
<svg id="Calque_1" data-name="Calque 1" xmlns="http://www.w3.org/2000/svg" viewBox="0 0 231.16 228.97">
  <defs>
    <style>
      .cls-1 {
        fill: #efefef;
      }
    </style>
  </defs>
  <polygon class="cls-1" points="129.34 99.33 129.34 85.62 143.06 85.55 143.08 58.1 129.36 58.09 129.32 44.35 101.85 44.35 101.81 58.09 88.09 58.1 88.1 85.55 101.79 85.61 101.82 99.33 88.11 99.34 88.04 85.63 74.35 85.59 74.34 58.1 88.07 58.09 88.1 44.39 101.81 44.34 101.87 30.6 129.29 30.6 129.35 44.34 143.07 44.39 143.09 58.09 156.82 58.1 156.82 85.57 143.11 85.64 143.07 99.32 129.34 99.33"/>
  <polygon class="cls-1" points="129.34 99.33 129.34 113.08 143.08 113.12 143.09 126.83 156.8 126.87 156.84 140.57 170.59 140.62 170.58 154.35 156.87 154.33 156.8 140.61 143.11 140.57 143.05 126.85 88.12 126.85 88.06 140.57 74.35 140.61 74.32 154.31 60.58 154.35 60.6 140.6 74.32 140.58 74.36 126.87 88.06 126.83 88.11 113.1 101.82 113.09 101.82 99.33 129.34 99.33"/>
  <polygon class="cls-1" points="60.58 154.35 60.6 181.84 170.56 181.84 170.58 154.35 184.32 154.37 184.32 195.59 46.83 195.59 46.85 154.35 60.58 154.35"/>
</svg>