<?xml version="1.0" encoding="UTF-8"?>
<svg id="Calque_1" data-name="Calque 1" xmlns="http://www.w3.org/2000/svg" viewBox="0 0 231.16 228.97">
  <defs>
    <style>
      .cls-1 {
        fill: #efefef;
      }
    </style>
  </defs>
  <polygon class="cls-1" points="139.74 41.99 91.42 41.99 91.44 32.31 139.73 32.31 139.74 41.99"/>
  <path class="cls-1" d="M91.42,41.99v9.64s9.66.05,9.66.05v9.63s9.68,0,9.68,0v19.3s-9.66.04-9.66.04l-.03,9.64-9.64.02-.03,9.66h-38.64s-.03-9.67-.03-9.67h-9.64s-.02-19.31-.02-19.31l9.66-.05v-9.61s9.64-.08,9.64-.08l.07-9.62h9.62s.02-9.66.02-9.66h19.34ZM91.4,90.32l.05-9.66,9.64-.06v-19.27s-9.64-.01-9.64-.01l-.06-9.67h-19.3s-.03,9.66-.03,9.66l-9.63.04-.03,9.61-9.67.06v19.31s38.66,0,38.66,0Z"/>
  <polygon class="cls-1" points="188.09 90.34 178.43 90.31 178.42 71.03 168.78 70.97 168.71 61.35 159.08 61.28 159.07 51.65 139.79 51.64 139.74 41.99 159.06 41.98 159.11 51.64 168.72 51.65 168.79 61.28 178.42 61.35 178.43 70.97 188.09 70.99 188.09 90.34"/>
  <polygon class="cls-1" points="43.09 90.33 43.09 138.64 33.4 138.63 33.4 90.34 43.09 90.33"/>
  <polygon class="cls-1" points="197.76 90.32 197.76 138.65 188.11 138.65 188.07 119.31 168.76 119.33 168.75 128.96 159.09 129.02 159.1 148.28 168.73 148.37 168.82 157.99 178.42 157.98 178.43 138.68 188.11 138.63 188.08 157.99 178.43 158 178.42 167.62 168.78 167.7 168.74 177.31 159.11 177.34 159.06 187 139.74 186.98 139.79 177.33 159.07 177.32 159.08 167.69 168.73 167.62 168.74 158.02 159.12 157.98 159.05 148.35 149.44 148.32 149.41 129.02 159.07 128.98 159.1 119.34 168.74 119.32 168.77 109.66 188.07 109.65 188.09 90.34 197.76 90.32"/>
  <path class="cls-1" d="M91.42,186.98l-19.32.02-.05-9.66h-9.61s-.07-9.64-.07-9.64l-9.63-.08v-9.62s-9.67-.02-9.67-.02v-19.34s9.66.06,9.66.06v19.28s9.61.01,9.61.01l.11-9.64,9.59-.05.08-9.64h19.28s.03,9.66.03,9.66l9.63.02.03,9.65h9.66s0,9.67,0,9.67h-9.67s0,9.64,0,9.64l-9.66.05v9.63ZM91.41,177.32l.04-9.67h9.63s0-9.65,0-9.65h-9.62s-.06-9.68-.06-9.68h-19.28s-.06,9.64-.06,9.64l-9.63.06v9.6s9.64.06,9.64.06l.06,9.65,19.28-.02Z"/>
  <polygon class="cls-1" points="139.74 186.98 139.75 196.66 91.42 196.66 91.42 186.98 139.74 186.98"/>
  <polygon class="cls-1" points="149.41 99.99 139.76 99.95 139.73 90.35 130.07 90.28 130.11 80.66 139.73 80.62 139.76 71 149.38 70.97 149.46 80.61 159.07 80.67 159.09 90.29 149.46 90.34 149.41 99.99"/>
  <polygon class="cls-1" points="120.45 109.61 110.76 109.58 110.76 99.99 120.53 99.99 120.45 109.61"/>
  <polygon class="cls-1" points="110.76 109.58 110.76 119.4 101.05 119.36 101.09 109.54 110.76 109.58"/>
  <polygon class="cls-1" points="120.45 119.44 120.45 109.61 130.11 109.65 130.07 119.48 120.45 119.44"/>
  <polygon class="cls-1" points="120.45 119.44 120.53 128.99 110.76 128.99 110.76 119.4 120.45 119.44"/>
</svg>