<?xml version="1.0" encoding="UTF-8"?>
<svg id="Calque_2" data-name="Calque 2" xmlns="http://www.w3.org/2000/svg" viewBox="0 0 67.19 49.75">
  <defs>
    <style>
      .cls-1 {
        fill: #f2efeb;
      }
    </style>
  </defs>
  <g id="Calque_1-2" data-name="Calque 1">
    <g>
      <path class="cls-1" d="M41.21,18.31c-.15-.2-.43-.38-.64-.36-.19.02-.49.19-.59.36-.63,1.04-.81,2.18-.81,3.39,0,.97.05,2.74,1.3,2.84,1.15-.58,1.38-3.17,1.29-4.21-.06-.71-.11-1.42-.56-2.01Z"/>
      <path class="cls-1" d="M46.24,18.09c-1.65-.02-2.02,5.5-.57,6.4.31.19.73-.05.9-.32.56-.84.69-1.76.77-2.77.08-.97.05-1.94-.41-2.82-.13-.25-.45-.49-.69-.49Z"/>
      <path class="cls-1" d="M65.97,8.46c-.51-.48-1.12-.75-1.86-.77-1.05-1.19-2.74-1.49-4.14-.75-.49.02-1.06-.08-1.52-.01-1.76.24-2.42,2.21-2.02,3.81.04.17.04.48-.05.61-.9,1.23-.69,2.82.43,3.83.86.78-1.45,1.22.68,3.39-.17,1.25-1.63,3.3-2.94,3.46l.38-4.7.12-2.47.11-3.26c.11-.12.22-.24.33-.36.6-.64.74-1.88.66-2.71-.09-1-.52-1.97-1.24-2.67-.28-.27-.61-.52-.76-.88-.15-.37-.09-.78-.17-1.17-.15-.76-.82-1.31-1.49-1.71-1.44-.85-3.08-1.3-4.73-1.6C45,0,42.17-.11,39.36.11c-1.97.16-3.94.49-5.77,1.23-.96.39-1.97,1.02-2.16,2.04-.09.46,0,.96-.21,1.38-.24.47-.78.68-1.16,1.05-.63.63-.69,1.6-.71,2.49-.02.86-.02,1.79.53,2.46.11.13.23.24.36.34v2.34s.18,6.73.18,6.73c.02.66.02,1.22,0,1.94-1.08,0-2.02-.04-3.08-.16-.18-.02-.38-.26-.35-.43.18-.99.28-1.88.39-2.86l.42-3.77c.03-.21.46-.46.62-.63.29-.31.61-.84.59-1.28l-.11-2.29c-.07-1.52-1.11-1.71-1.88-2.48-.04-.43.03-.9-.04-1.32-.29-1.84-4.15-3-5.76-3.31-4.03-.77-8.16-.76-12.19.02-1.31.25-2.51.66-3.59,1.34-.86.54-1.28,1.38-1.13,2.37.07.45-.14.73-.53.93-.62.32-1.25.84-1.31,1.58l-.19,2.09c-.22,2.47,1.92,2.13,1.69,3.03-.54.18-1.15.32-1.5.76-1.16,1.46.11,3.07-.4,3.72-1.08,1.38-1.52,3.11-1.1,4.85.24.98-1.2,1.17-.62,3.22-.34,1.35-.53,2.83-.04,4.19.69,1.92,2.96,2.88,4.83,2.2.72-.26,1.14-.8,1.65-1.36.74.36,1.46.73,2.21,1.04.6.25,1.18.33,1.81.66-.68.4-1.34.51-2.03.73-.46.14-.78.05-1.16-.16-.83-.44-1.76-.04-2.6.05-1.52.17-2.74.91-3.23,2.43-.73,2.25-.15,6.78,1.98,8.55-.65.25-2.13.7-2.14,1.46,0,1.5,4.98,2.04,6.14,2.16,3.89.39,7.74.44,11.64.12,1.91-.16,3.68-.46,5.52-.98.42-.12,1.71-.68,1.75-1.22.05-.71-.83-.63-.32-1.2.81-.93,1.46-1.94,1.96-3.05.56-1.25.69-2.48.53-3.85-.32-2.69-2.91-4.5-5.56-3.82-1.99.51-2.07,1.08-3.67,2.36l-1.19-2.14.8-.63c.34-.27.65-.5,1.11-.6,1.59-.36,3.08-.92,4.41-1.82.69-.47,1.08-1.04,1.19-1.87l.61-4.73,2.04.23,2.17.1c.08,1.55.16,2.95.37,4.41.15,1.05.73,1.85,1.66,2.33,1.01.53,2.06.86,3.17,1.19.07.02.18.08.23.12.22.17-1.53,2.25-1.74,2.48-.6.67-1.47.96-2.31,1.13-2.44.49-2.56,3.4-1.75,5.37.35.84.85,1.58,1.37,2.37-.72.34-2.22.61-2.17,1.52.02.33.26.62.57.78.9.46,1.82.78,2.83.97,4.23.8,8.54.75,12.87.66,2.67-.05,5.23-.38,7.81-.97.64-.15,2.77-.77,2.37-1.69-.19-.42-.56-.6-1.02-.85l.66-.85c1.23-1.58,1.99-3.44,1.95-5.47-.03-1.68-.83-3.24-2.3-4.08-1.21-.69-2.66-.66-3.95-.14-.48.2-.91.47-1.41.71l-1.01-1.93c1.43-.52,4.17-1.29,4.49-2.87.34-1.68.51-3.31.69-5.02.02-.18.19-.37.4-.4,1.8-.28,3.52-1.05,4.7-2.47.96-1.16,1.46-2.55,1.89-3.97.08-.26.25-.51.52-.56,1.28-.22,2.11-1.29,2.11-2.63,2.09-.72,3.38-2.63,3.47-4.81.05-1.24-.32-2.33-1.22-3.18ZM21.38,43.26c.62-1.88,2.42-4.31,4.43-4.73.87-.18,1.63.25,1.86,1.13.66,2.6-2.18,6.87-4.88,7.33-.86.15-1.49-.35-1.64-1.13-.17-.86-.1-1.78.23-2.6ZM61.19,7.79c.57-.14,1.1-.04,1.5.37-1.15,1.26-1.16,1.01-1.64,2.7l-1.2-.73c-.21-.82.42-2.11,1.34-2.34ZM57.73,8.72c.25-.37.75-.65,1.3-.64-.23.69-.38,1.15-.39,1.93-.35.14-.74.24-1.14.28-.16-.58-.1-1.08.23-1.58ZM35.97,1.79c4.42-.99,10.06-.9,14.39.58.73.25,2.65,1.05,2.55,1.92-.12,1.01-2.58,1.67-3.58,1.85-4.04.74-8.09.67-12.08-.03-1.07-.19-4.77-1.11-4.75-2.36.02-.97,2.59-1.76,3.46-1.96ZM8.92,4.8c4.42-.99,10.06-.9,14.39.58.73.25,2.65,1.05,2.55,1.92-.12,1.01-2.58,1.67-3.58,1.85-4.04.74-8.09.67-12.08-.03-1.07-.19-4.77-1.11-4.75-2.36.02-.97,2.59-1.76,3.46-1.96ZM3.26,16.8c.14-.51.7-.72,1.16-.49.41.2.66.65.71,1.09l-1.77.85c-.26-.41-.23-.98-.1-1.45ZM1.47,27.14c-.19-.42-.22-.88.16-1.24.86,1.23,2.09,1.89,3.51,2.27-.57,1.25-3.02.41-3.67-1.02ZM6.5,26.98c-.93.2-1.8-.07-2.59-.56-2.05-1.3-2.61-4.27-.93-6.2,1.9-2.17,5.36-2.43,5.62-.93.09.53-.15,1.17-.74,1.27-.78.13-1.73-.45-2.1.22-.11.2-.11.8.18.84l1.62.23c.36.05.74.31.85.59.16.39.09.82-.18,1.15-.97,1.18-2.2-.05-3.09.25-.17.06-.26.47-.21.64.24.75,1.74.69,2.51.8.29.73-.13,1.54-.92,1.71ZM6.82,39.6c-1.19-.51-1.93-1.86-1.63-3.11.14-.57.72-.85,1.23-.61-.41,1.47.22,2.72,1.46,3.52-.29.3-.69.35-1.06.2ZM12.51,44.86c-.05-1.81-1.4-3.01-3.03-3.15-.47-.04-.95.02-1.4-.06-.25-.05-.37-.78-.16-.9,1.16-.55,1.14-.33,1.76-1.51l1.98-.48,2.76-.89,1.49,3.57-.06,1.4c-.04.93.49,1.46,1.27,2.01h-4.61ZM17.71,43.68c-.76.32-.91-1.3-.56-1.96.3-.56.66-1.14,1.2-1.52-.34,1.22-.75,2.22-.64,3.47ZM26.12,19.35l-.71,5.37-.72,6c-.04.32-.22.61-.47.78-1.46.96-3,1.59-4.74,1.9-4.16.76-8.51.14-12.24-1.97l-.36-3.33c1.05-.29,1.73-1.06,1.78-2.14l.05-1.15c.16-.18.46-.43.6-.63.67-.88.45-2.05-.24-2.87.33-.51.71-.96.78-1.53.15-1.11-.59-2.1-1.63-2.43-.59-.19-1.22-.2-1.82-.24-.19-.49-.41-.99-.74-1.35-.2-.21-.35-.3-.36-.67.8.13,1.4.4,2.15.6,5.23,1.35,12.01,1.63,17.23.13.63-.18,1.13-.38,1.87-.52-.08,1.39-.23,2.67-.41,4.04ZM30.54,25.11c-1.54.06-2.35-.05-3.93-.29l.25-1.7,1.6.07,2.07.11.17.91c.05.28.03.73-.15.91ZM36.33,41.25c-1.2.27-2.48-.33-3.06-1.41-.29-.55-.08-1.17.51-1.38.82,1.44,1.4,1.94,3.27,2.01.06.4-.35.69-.72.77ZM36.58,39.14l-1.62-1.05c.11-.44.58-.71.86-1.05.63-.75,1.12-1.5,1.67-2.35.55.01,1.11.09,1.68.19l.26.05c.06.01.03.28,0,.35l-.68,1.36c-.09.17-1.82,2.76-2.18,2.5ZM41.95,44.78c-.04-.76-.07-1.45-.35-2.09-.54-1.23-1.73-1.86-3.11-1.84l-.55-1.2c1.21-1.19,2.32-3.02,2.8-4.56h4.06s1.25,3.08,1.25,3.08c.13.32.38.61.39.98-.48.95-.42,1.98.02,2.9-.01.93.08,1.69.42,2.76l-4.92-.03ZM51.35,40.9c.85-1.16,2.19-2.68,3.76-2.57.68.05,1.24.49,1.37,1.17.45,2.51-1.99,6.8-4.89,7.27-.92.15-1.58-.43-1.64-1.32-.12-1.63.45-3.23,1.41-4.55ZM49.05,37.14c-.47.49-.85.81-1.54,1.26l-.82-1.67c-.26-.53-.43-1.15-.63-1.78l1.31-.26c.26-.05.48.08.6.32l1.09,2.13ZM51.47,32.1c-1.19.68-2.45,1.12-3.84,1.39-3.72.72-7.53.6-11.21-.29-1.17-.28-2.23-.68-3.24-1.24-.64-.35-.92-.89-.99-1.6-.02-.22-.04-.43-.06-.64,1.18.93,4.07,2.3,10.78,2.3,5.15,0,8.3-1.38,9.61-2.12-.03.28-.07.56-.1.84-.08.63-.41,1.05-.94,1.36ZM53.47,20.85c-.15,2.28-.4,4.51-.67,6.74-1.18.7-4.03,1.92-9.62,2.15-4.64.19-9.61-1.9-11.26-2.65-.02-.35-.05-.7-.07-1.05-.05-.92-.1-1.84-.13-2.77l-.27-6.98c-.06-1.56-.09-3.09-.09-4.63.03.01.06.02.09.03,5.05,1.83,10.53,2.5,15.87,1.9,1.07-.12,2.14-.29,3.2-.51,2.51-.53,2.71-.66,3.05-.78l.46-.15c-.01.35-.03.69-.05,1.07l-.52,7.64ZM58.05,23.21c-1.06.91-2.25,1.56-3.78,1.74l.11-1.53c.71-.29,1.44-.52,2.02-1.01,1.25-1.06,1.51-1.73,2.18-3.27l1.21.14c.4.85-1.18,3.23-1.75,3.93ZM61.52,17.94c-1.46.54-3.64.03-3.75-.94-.03-.22.14-.74.36-.78l1.75.44c.8.2,1.61.13,2.54.14.05.51-.39.95-.9,1.14ZM65.35,13.72c-1.44,2.31-5.23,2.48-7.51.88-.75-.53-1.06-1.72-.56-2.51.56-.88,1.83-1.03,2.69-.57.34.18.44.59.16.92-.42.48-1.19.42-1,1.13.08.29.42.43.74.36.74-.15,1.18-.68,1.55-1.39l.71.54c.62.32,1.52.2,2.01-.28.66-.66,1.31-2.06.49-2.33-1.01-.34-.77,1.77-1.86,1.63-.2-.03-.48-.33-.5-.6-.08-.95.48-1.85,1.26-2.36.44-.28.97-.25,1.39.02.71.47.99,1.24,1.07,2.05.09.94-.13,1.71-.62,2.51Z"/>
      <path class="cls-1" d="M16.75,20.11c-1.77-.81-2.44,6.26-.59,6.27.46,0,.78-.42.94-.81.56-1.4.64-2.94.33-4.42-.09-.41-.31-.88-.67-1.04Z"/>
      <path class="cls-1" d="M21.84,19.74c-.42.09-.77.46-.91.88-.55,1.56-.64,3.29-.08,4.84.14.4.63.7,1,.53.88-.4,1.11-2.53,1.18-3.44.07-.89-.22-3.01-1.18-2.82Z"/>
      <path class="cls-1" d="M7.9,7.51c.72.39,1.48.61,2.32.74,3.6.57,9.56.83,13.05-.19.4-.12.85-.38,1.08-.7.8-1.09-2.42-1.84-3.05-1.96-3.1-.59-6.23-.7-9.37-.45-1.08.09-4.2.53-4.65,1.53-.18.39.31.85.63,1.03Z"/>
      <path class="cls-1" d="M34.95,4.49c.72.39,1.48.61,2.32.74,3.6.57,9.56.83,13.05-.19.4-.12.85-.38,1.08-.7.8-1.09-2.42-1.84-3.05-1.96-3.1-.59-6.23-.7-9.37-.45-1.08.09-4.2.53-4.65,1.53-.18.39.31.85.63,1.03Z"/>
    </g>
  </g>
</svg>